<?xml version="1.0" encoding="UTF-8" standalone="no"?>
<svg
   inkscape:export-ydpi="576"
   inkscape:export-xdpi="576"
   inkscape:export-filename="D:\Project Real\Maret 1\export\filled line\png\23 - Curriculum vitae.png"
   width="64pt"
   height="64pt"
   viewBox="0 0 22.577778 22.577778"
   version="1.1"
   id="svg831"
   inkscape:version="1.3.2 (091e20e, 2023-11-25, custom)"
   sodipodi:docname="advertenciapapel.svg"
   xmlns:inkscape="http://www.inkscape.org/namespaces/inkscape"
   xmlns:sodipodi="http://sodipodi.sourceforge.net/DTD/sodipodi-0.dtd"
   xmlns="http://www.w3.org/2000/svg"
   xmlns:svg="http://www.w3.org/2000/svg"
   xmlns:rdf="http://www.w3.org/1999/02/22-rdf-syntax-ns#"
   xmlns:cc="http://creativecommons.org/ns#"
   xmlns:dc="http://purl.org/dc/elements/1.1/">
  <defs
     id="defs825">
    <pattern
       id="EMFhbasepattern"
       patternUnits="userSpaceOnUse"
       width="6"
       height="6"
       x="0"
       y="0" />
    <pattern
       id="EMFhbasepattern-9"
       patternUnits="userSpaceOnUse"
       width="6"
       height="6"
       x="0"
       y="0" />
    <pattern
       id="EMFhbasepattern-0"
       patternUnits="userSpaceOnUse"
       width="6"
       height="6"
       x="0"
       y="0" />
    <pattern
       id="EMFhbasepattern-7"
       patternUnits="userSpaceOnUse"
       width="6"
       height="6"
       x="0"
       y="0" />
    <pattern
       id="EMFhbasepattern-2"
       patternUnits="userSpaceOnUse"
       width="6"
       height="6"
       x="0"
       y="0" />
    <pattern
       id="EMFhbasepattern-98"
       patternUnits="userSpaceOnUse"
       width="6"
       height="6"
       x="0"
       y="0" />
    <pattern
       id="EMFhbasepattern-6"
       patternUnits="userSpaceOnUse"
       width="6"
       height="6"
       x="0"
       y="0" />
    <pattern
       id="EMFhbasepattern-01"
       patternUnits="userSpaceOnUse"
       width="6"
       height="6"
       x="0"
       y="0" />
    <pattern
       id="EMFhbasepattern-07"
       patternUnits="userSpaceOnUse"
       width="6"
       height="6"
       x="0"
       y="0" />
    <pattern
       id="EMFhbasepattern-8"
       patternUnits="userSpaceOnUse"
       width="6"
       height="6"
       x="0"
       y="0" />
    <pattern
       id="EMFhbasepattern-4"
       patternUnits="userSpaceOnUse"
       width="6"
       height="6"
       x="0"
       y="0" />
    <pattern
       id="EMFhbasepattern-40"
       patternUnits="userSpaceOnUse"
       width="6"
       height="6"
       x="0"
       y="0" />
    <pattern
       id="EMFhbasepattern-08"
       patternUnits="userSpaceOnUse"
       width="6"
       height="6"
       x="0"
       y="0" />
    <pattern
       id="EMFhbasepattern-04"
       patternUnits="userSpaceOnUse"
       width="6"
       height="6"
       x="0"
       y="0" />
    <pattern
       id="EMFhbasepattern-014"
       patternUnits="userSpaceOnUse"
       width="6"
       height="6"
       x="0"
       y="0" />
    <pattern
       id="EMFhbasepattern-27"
       patternUnits="userSpaceOnUse"
       width="6"
       height="6"
       x="0"
       y="0" />
    <pattern
       id="EMFhbasepattern-09"
       patternUnits="userSpaceOnUse"
       width="6"
       height="6"
       x="0"
       y="0" />
    <pattern
       id="EMFhbasepattern-5"
       patternUnits="userSpaceOnUse"
       width="6"
       height="6"
       x="0"
       y="0" />
    <pattern
       id="EMFhbasepattern-018"
       patternUnits="userSpaceOnUse"
       width="6"
       height="6"
       x="0"
       y="0" />
    <inkscape:path-effect
       effect="fillet_chamfer"
       id="path-effect1165"
       is_visible="true"
       lpeversion="1"
       satellites_param="F,0,0,1,0,0,0,1 @ F,0,0,1,0,1.4486321,0,1 @ F,0,0,1,0,0,0,1 @ F,0,0,1,0,0,0,1 @ F,0,0,1,0,1.1651536,0,1 @ F,0,0,1,0,0,0,1 @ F,0,0,1,0,0,0,1 @ F,0,0,1,0,0,0,1 @ F,0,0,1,0,0,0,1 @ F,0,0,1,0,0,0,1 @ F,0,0,1,0,0,0,1 @ F,0,0,1,0,0,0,1 @ F,0,0,1,0,0,0,1 @ F,0,0,1,0,0,0,1"
       unit="px"
       method="auto"
       mode="F"
       radius="0"
       chamfer_steps="1"
       flexible="false"
       use_knot_distance="true"
       apply_no_radius="true"
       apply_with_radius="true"
       only_selected="true"
       hide_knots="false"
       nodesatellites_param="F,0,0,1,0,0,0,1 @ F,0,0,1,0,1.4486321,0,1 @ F,0,0,1,0,0,0,1 @ F,0,0,1,0,0,0,1 @ F,0,0,1,0,1.1651536,0,1 @ F,0,0,1,0,0,0,1 @ F,0,0,1,0,0,0,1 @ F,0,0,1,0,0,0,1 @ F,0,0,1,0,0,0,1 @ F,0,0,1,0,0,0,1 @ F,0,0,1,0,0,0,1 @ F,0,0,1,0,0,0,1 @ F,0,0,1,0,0,0,1 @ F,0,0,1,0,0,0,1" />
  </defs>
  <sodipodi:namedview
     id="base"
     pagecolor="#ffffff"
     bordercolor="#666666"
     borderopacity="1.0"
     inkscape:pageopacity="0.0"
     inkscape:pageshadow="2"
     inkscape:zoom="4.4249417"
     inkscape:cx="36.723648"
     inkscape:cy="52.317074"
     inkscape:document-units="pt"
     inkscape:current-layer="g1507"
     showgrid="false"
     units="pt"
     inkscape:window-width="1366"
     inkscape:window-height="705"
     inkscape:window-x="-8"
     inkscape:window-y="-8"
     inkscape:window-maximized="1"
     inkscape:pagecheckerboard="true"
     inkscape:showpageshadow="false"
     inkscape:object-paths="true"
     inkscape:snap-intersection-paths="true"
     inkscape:snap-smooth-nodes="true"
     inkscape:snap-midpoints="true"
     showguides="true"
     inkscape:snap-bbox="true"
     inkscape:bbox-nodes="true"
     inkscape:snap-nodes="false"
     inkscape:snap-global="true"
     inkscape:document-rotation="0"
     inkscape:deskcolor="#d1d1d1">
    <inkscape:grid
       type="xygrid"
       id="grid1378"
       originx="0"
       originy="0"
       spacingy="1"
       spacingx="1"
       units="pt"
       visible="false" />
    <sodipodi:guide
       position="0.97013831,21.607643"
       orientation="78.000048,0"
       id="guide1380"
       inkscape:locked="false" />
    <sodipodi:guide
       position="0.97013831,0.97013129"
       orientation="0,78.000005"
       id="guide1382"
       inkscape:locked="false" />
    <sodipodi:guide
       position="21.607639,0.97013129"
       orientation="-78.000048,0"
       id="guide1384"
       inkscape:locked="false" />
    <sodipodi:guide
       position="21.607639,21.607643"
       orientation="0,-78.000005"
       id="guide1386"
       inkscape:locked="false" />
  </sodipodi:namedview>
  <metadata
     id="metadata828">
    <rdf:RDF>
      <cc:Work
         rdf:about="">
        <dc:format>image/svg+xml</dc:format>
        <dc:type
           rdf:resource="http://purl.org/dc/dcmitype/StillImage" />
        <dc:title />
      </cc:Work>
    </rdf:RDF>
  </metadata>
  <g
     inkscape:label="Icon"
     inkscape:groupmode="layer"
     id="layer1"
     transform="translate(0,-274.42223)">
    <g
       transform="matrix(1.3009445,0,0,1.3009445,-39.408862,-89.654503)"
       style="display:inline;stroke-width:0.768672"
       id="g1507">
      <path
         sodipodi:nodetypes="ccccc"
         style="color:#000000;font-style:normal;font-variant:normal;font-weight:normal;font-stretch:normal;font-size:medium;line-height:normal;font-family:sans-serif;font-variant-ligatures:normal;font-variant-position:normal;font-variant-caps:normal;font-variant-numeric:normal;font-variant-alternates:normal;font-variant-east-asian:normal;font-feature-settings:normal;font-variation-settings:normal;text-indent:0;text-align:start;text-decoration:none;text-decoration-line:none;text-decoration-style:solid;text-decoration-color:#000000;letter-spacing:normal;word-spacing:normal;text-transform:none;writing-mode:lr-tb;direction:ltr;text-orientation:mixed;dominant-baseline:auto;baseline-shift:baseline;text-anchor:start;white-space:normal;shape-padding:0;shape-margin:0;inline-size:0;clip-rule:nonzero;display:inline;overflow:visible;visibility:visible;isolation:auto;mix-blend-mode:normal;color-interpolation:sRGB;color-interpolation-filters:linearRGB;solid-color:#000000;solid-opacity:1;vector-effect:none;fill:#ececec;fill-opacity:1;fill-rule:nonzero;stroke:none;stroke-width:0.406756;stroke-linecap:round;stroke-linejoin:round;stroke-miterlimit:4;stroke-dasharray:none;stroke-dashoffset:0;stroke-opacity:1;color-rendering:auto;image-rendering:auto;shape-rendering:auto;text-rendering:auto;enable-background:accumulate;stop-color:#000000"
         d="m 32.9375,287.47656 -1.578125,5.93164 c -0.180138,0.6723 0.22224,1.36869 0.894531,1.54883 l 0.683594,0.23438 z"
         id="path1586" />
      <path
         sodipodi:nodetypes="ccccc"
         style="color:#000000;font-style:normal;font-variant:normal;font-weight:normal;font-stretch:normal;font-size:medium;line-height:normal;font-family:sans-serif;font-variant-ligatures:normal;font-variant-position:normal;font-variant-caps:normal;font-variant-numeric:normal;font-variant-alternates:normal;font-variant-east-asian:normal;font-feature-settings:normal;font-variation-settings:normal;text-indent:0;text-align:start;text-decoration:none;text-decoration-line:none;text-decoration-style:solid;text-decoration-color:#000000;letter-spacing:normal;word-spacing:normal;text-transform:none;writing-mode:lr-tb;direction:ltr;text-orientation:mixed;dominant-baseline:auto;baseline-shift:baseline;text-anchor:start;white-space:normal;shape-padding:0;shape-margin:0;inline-size:0;clip-rule:nonzero;display:inline;overflow:visible;visibility:visible;isolation:auto;mix-blend-mode:normal;color-interpolation:sRGB;color-interpolation-filters:linearRGB;solid-color:#000000;solid-opacity:1;vector-effect:none;fill:#ececec;fill-opacity:1;fill-rule:nonzero;stroke:none;stroke-width:0.406756;stroke-linecap:round;stroke-linejoin:round;stroke-miterlimit:4;stroke-dasharray:none;stroke-dashoffset:0;stroke-opacity:1;color-rendering:auto;image-rendering:auto;shape-rendering:auto;text-rendering:auto;enable-background:accumulate;stop-color:#000000"
         d="m 39.847655,281.65229 -3.759764,-1.00776 c -0.672296,-0.18014 -1.36869,0.22225 -1.548829,0.89453 l -0.08008,0.10156 z"
         id="path1580" />
      <path
         sodipodi:nodetypes="ccccc"
         d="m 32.949413,287.47656 -0.439767,1.64021 v 5.90868 l 0.427855,0.16588 z"
         style="color:#000000;font-style:normal;font-variant:normal;font-weight:normal;font-stretch:normal;font-size:medium;line-height:normal;font-family:sans-serif;font-variant-ligatures:normal;font-variant-position:normal;font-variant-caps:normal;font-variant-numeric:normal;font-variant-alternates:normal;font-variant-east-asian:normal;font-feature-settings:normal;font-variation-settings:normal;text-indent:0;text-align:start;text-decoration:none;text-decoration-line:none;text-decoration-style:solid;text-decoration-color:#000000;letter-spacing:normal;word-spacing:normal;text-transform:none;writing-mode:lr-tb;direction:ltr;text-orientation:mixed;dominant-baseline:auto;baseline-shift:baseline;text-anchor:start;white-space:normal;shape-padding:0;shape-margin:0;inline-size:0;clip-rule:nonzero;display:inline;overflow:visible;visibility:visible;isolation:auto;mix-blend-mode:normal;color-interpolation:sRGB;color-interpolation-filters:linearRGB;solid-color:#000000;solid-opacity:1;vector-effect:none;fill:#cccccc;fill-opacity:1;fill-rule:nonzero;stroke:none;stroke-width:0.406755;stroke-linecap:round;stroke-linejoin:round;stroke-miterlimit:4;stroke-dasharray:none;stroke-dashoffset:0;stroke-opacity:1;color-rendering:auto;image-rendering:auto;shape-rendering:auto;text-rendering:auto;enable-background:accumulate;stop-color:#000000"
         id="path1530" />
      <path
         sodipodi:nodetypes="cccccc"
         d="m 39.847698,281.65209 -1.639176,-0.43925 h -3.5233 c -0.06125,0.10037 -0.114353,0.20706 -0.146243,0.32608 l -0.0801,0.1017 z"
         style="color:#000000;font-style:normal;font-variant:normal;font-weight:normal;font-stretch:normal;font-size:medium;line-height:normal;font-family:sans-serif;font-variant-ligatures:normal;font-variant-position:normal;font-variant-caps:normal;font-variant-numeric:normal;font-variant-alternates:normal;font-variant-east-asian:normal;font-feature-settings:normal;font-variation-settings:normal;text-indent:0;text-align:start;text-decoration:none;text-decoration-line:none;text-decoration-style:solid;text-decoration-color:#000000;letter-spacing:normal;word-spacing:normal;text-transform:none;writing-mode:lr-tb;direction:ltr;text-orientation:mixed;dominant-baseline:auto;baseline-shift:baseline;text-anchor:start;white-space:normal;shape-padding:0;shape-margin:0;inline-size:0;clip-rule:nonzero;display:inline;overflow:visible;visibility:visible;isolation:auto;mix-blend-mode:normal;color-interpolation:sRGB;color-interpolation-filters:linearRGB;solid-color:#000000;solid-opacity:1;vector-effect:none;fill:#cccccc;fill-opacity:1;fill-rule:nonzero;stroke:none;stroke-width:0.406755;stroke-linecap:round;stroke-linejoin:round;stroke-miterlimit:4;stroke-dasharray:none;stroke-dashoffset:0;stroke-opacity:1;color-rendering:auto;image-rendering:auto;shape-rendering:auto;text-rendering:auto;enable-background:accumulate;stop-color:#000000"
         id="path1516" />
      <path
         id="path1488"
         d="m 34.203125,281.64062 c -0.69601,0 -1.265625,0.56767 -1.265625,1.26368 v 12.28906 c 0,0.696 0.569615,1.26367 1.265625,1.26367 l 10.630859,-0.002 a 0.26460996,0.26460996 0 0 0 0.263672,-0.26563 l 0.01172,-10.90234 a 0.26460996,0.26460996 0 0 0 -0.06641,-0.17383 l -2.9375,-3.38281 a 0.26460996,0.26460996 0 0 0 -0.201172,-0.0899 z"
         style="color:#000000;font-style:normal;font-variant:normal;font-weight:normal;font-stretch:normal;font-size:medium;line-height:normal;font-family:sans-serif;font-variant-ligatures:normal;font-variant-position:normal;font-variant-caps:normal;font-variant-numeric:normal;font-variant-alternates:normal;font-variant-east-asian:normal;font-feature-settings:normal;font-variation-settings:normal;text-indent:0;text-align:start;text-decoration:none;text-decoration-line:none;text-decoration-style:solid;text-decoration-color:#000000;letter-spacing:normal;word-spacing:normal;text-transform:none;writing-mode:lr-tb;direction:ltr;text-orientation:mixed;dominant-baseline:auto;baseline-shift:baseline;text-anchor:start;white-space:normal;shape-padding:0;shape-margin:0;inline-size:0;clip-rule:nonzero;display:inline;overflow:visible;visibility:visible;isolation:auto;mix-blend-mode:normal;color-interpolation:sRGB;color-interpolation-filters:linearRGB;solid-color:#000000;solid-opacity:1;vector-effect:none;fill:#f9f9f9;fill-opacity:1;fill-rule:nonzero;stroke:none;stroke-width:0.406756;stroke-linecap:round;stroke-linejoin:round;stroke-miterlimit:4;stroke-dasharray:none;stroke-dashoffset:0;stroke-opacity:1;color-rendering:auto;image-rendering:auto;shape-rendering:auto;text-rendering:auto;enable-background:accumulate;stop-color:#000000" />
      <path
         d="m 41.66981,281.64072 v 3.70314 c -5.3e-4,0.14617 0.117377,0.26509 0.263548,0.26561 h 3.175516 l 5.3e-4,-0.32246 a 0.26460996,0.26460996 0 0 0 -0.06667,-0.17363 l -2.937298,-3.38274 a 0.26460996,0.26460996 0 0 0 -0.20102,-0.0899 z"
         style="color:#000000;font-style:normal;font-variant:normal;font-weight:normal;font-stretch:normal;font-size:medium;line-height:normal;font-family:sans-serif;font-variant-ligatures:normal;font-variant-position:normal;font-variant-caps:normal;font-variant-numeric:normal;font-variant-alternates:normal;font-variant-east-asian:normal;font-feature-settings:normal;font-variation-settings:normal;text-indent:0;text-align:start;text-decoration:none;text-decoration-line:none;text-decoration-style:solid;text-decoration-color:#000000;letter-spacing:normal;word-spacing:normal;text-transform:none;writing-mode:lr-tb;direction:ltr;text-orientation:mixed;dominant-baseline:auto;baseline-shift:baseline;text-anchor:start;white-space:normal;shape-padding:0;shape-margin:0;inline-size:0;clip-rule:nonzero;display:inline;overflow:visible;visibility:visible;isolation:auto;mix-blend-mode:normal;color-interpolation:sRGB;color-interpolation-filters:linearRGB;solid-color:#000000;solid-opacity:1;vector-effect:none;fill:#ececec;fill-opacity:1;fill-rule:nonzero;stroke:none;stroke-width:0.406755;stroke-linecap:round;stroke-linejoin:round;stroke-miterlimit:4;stroke-dasharray:none;stroke-dashoffset:0;stroke-opacity:1;color-rendering:auto;image-rendering:auto;shape-rendering:auto;text-rendering:auto;enable-background:accumulate;stop-color:#000000"
         id="path1502" />
      <path
         d="m 43.521374,290.34355 c -0.517144,0.001 -1.050776,0.26577 -1.341519,0.7736 l -2.013831,3.51555 a 0.49325383,0.49325383 0 0 0 0,0.002 c -0.354005,0.61841 -0.206354,1.34655 0.226343,1.82108 l 4.44159,-10e-4 a 0.26460996,0.26460996 0 0 0 0.263551,-0.26562 l 0.0052,-4.68085 -0.233579,-0.40101 c -0.294362,-0.5056 -0.830392,-0.76566 -1.347721,-0.76378 z"
         style="color:#000000;font-style:normal;font-variant:normal;font-weight:normal;font-stretch:normal;font-size:medium;line-height:normal;font-family:sans-serif;font-variant-ligatures:normal;font-variant-position:normal;font-variant-caps:normal;font-variant-numeric:normal;font-variant-alternates:normal;font-variant-east-asian:normal;font-feature-settings:normal;font-variation-settings:normal;text-indent:0;text-align:start;text-decoration:none;text-decoration-line:none;text-decoration-style:solid;text-decoration-color:#000000;letter-spacing:normal;word-spacing:normal;text-transform:none;writing-mode:lr-tb;direction:ltr;text-orientation:mixed;dominant-baseline:auto;baseline-shift:baseline;text-anchor:start;white-space:normal;shape-padding:0;shape-margin:0;inline-size:0;clip-rule:nonzero;display:inline;overflow:visible;visibility:visible;isolation:auto;mix-blend-mode:normal;color-interpolation:sRGB;color-interpolation-filters:linearRGB;solid-color:#000000;solid-opacity:1;vector-effect:none;fill:#cccccc;fill-opacity:1;fill-rule:nonzero;stroke:none;stroke-width:0.406755;stroke-linecap:round;stroke-linejoin:round;stroke-miterlimit:4;stroke-dasharray:none;stroke-dashoffset:0;stroke-opacity:1;color-rendering:auto;image-rendering:auto;shape-rendering:auto;text-rendering:auto;enable-background:accumulate;stop-color:#000000"
         id="path1557" />
      <path
         id="path1544"
         d="m 43.523438,290.83789 c -0.358507,10e-4 -0.71651,0.17497 -0.916016,0.52344 a 0.26460996,0.26460996 0 0 0 0,0.002 l -2.013672,3.51563 c -0.39897,0.69696 0.120754,1.58889 0.923828,1.58593 l 4.029297,-0.0156 a 0.26460996,0.26460996 0 0 0 0.02344,0 c 0.803077,-0.003 1.316213,-0.89779 0.91211,-1.5918 l -2.039063,-3.50195 c -0.202031,-0.34701 -0.561415,-0.51888 -0.919921,-0.51758 z"
         style="color:#000000;font-style:normal;font-variant:normal;font-weight:normal;font-stretch:normal;font-size:medium;line-height:normal;font-family:sans-serif;font-variant-ligatures:normal;font-variant-position:normal;font-variant-caps:normal;font-variant-numeric:normal;font-variant-alternates:normal;font-variant-east-asian:normal;font-feature-settings:normal;font-variation-settings:normal;text-indent:0;text-align:start;text-decoration:none;text-decoration-line:none;text-decoration-style:solid;text-decoration-color:#000000;letter-spacing:normal;word-spacing:normal;text-transform:none;writing-mode:lr-tb;direction:ltr;text-orientation:mixed;dominant-baseline:auto;baseline-shift:baseline;text-anchor:start;white-space:normal;shape-padding:0;shape-margin:0;inline-size:0;clip-rule:nonzero;display:inline;overflow:visible;visibility:visible;isolation:auto;mix-blend-mode:normal;color-interpolation:sRGB;color-interpolation-filters:linearRGB;solid-color:#000000;solid-opacity:1;vector-effect:none;fill:#008080;fill-opacity:1;fill-rule:nonzero;stroke:none;stroke-width:0.406756;stroke-linecap:round;stroke-linejoin:round;stroke-miterlimit:4;stroke-dasharray:none;stroke-dashoffset:0;stroke-opacity:1;color-rendering:auto;image-rendering:auto;shape-rendering:auto;text-rendering:auto;enable-background:accumulate;stop-color:#000000" />
      <path
         sodipodi:nodetypes="ssccccscscsssscccccscccccccscsscccscccccsccscccsccsccccccccccccccccccccccccccccccsccccccccsccscscccccscscsc"
         d="m 34.202048,281.64072 c -0.696011,0 -1.263489,0.56748 -1.263489,1.26349 v 4.60902 l -1.5782,5.89473 c -0.180136,0.67229 0.22016,1.3686 0.892453,1.54874 l 0.685747,0.21007 c 0,0.72262 0.567478,1.2901 1.263489,1.2901 h 5.349544 c 0.146124,5.8e-4 0.265046,-0.11743 0.265615,-0.26355 5.29e-4,-0.14693 -0.118681,-0.26619 -0.265615,-0.26562 h -5.349544 c -0.412002,0 -0.734322,-0.32232 -0.734322,-0.73432 v -12.28917 c 0,-0.412 0.32232,-0.73432 0.734322,-0.73432 h 7.466727 v 3.17396 c -5.3e-4,0.14694 0.118681,0.26618 0.265617,0.26562 h 2.644799 v 4.49792 c 5.29e-4,0.14612 0.119491,0.26412 0.265618,0.26355 0.14532,-5.6e-4 0.262983,-0.11824 0.263549,-0.26355 v -4.82038 c 9.5e-5,-0.0638 -0.02283,-0.12543 -0.06459,-0.17363 l -2.939355,-3.38119 c -0.05,-0.0578 -0.122541,-0.0911 -0.198956,-0.0915 H 39.80429 l -3.715535,-0.99632 c -0.08404,-0.0225 -0.168447,-0.0359 -0.252183,-0.0408 -0.586142,-0.0345 -1.138938,0.3471 -1.310256,0.98625 z m 1.601451,-0.50901 c 0.04912,0.003 0.09908,0.011 0.148828,0.0243 l 1.80661,0.48473 h -2.693892 c 0.10496,-0.32673 0.406892,-0.53053 0.738454,-0.50901 z m 6.394442,1.51463 2.114601,2.43345 h -2.114601 z m -7.671882,1.37511 c -0.146934,-5.8e-4 -0.266192,0.11869 -0.265618,0.26562 5.29e-4,0.14613 0.119491,0.26412 0.265618,0.26355 h 5.291148 c 0.14532,-5.6e-4 0.262986,-0.11823 0.263552,-0.26355 5.29e-4,-0.14613 -0.117425,-0.26505 -0.263552,-0.26562 z m 0,2.64635 c -0.146127,-5.8e-4 -0.265049,0.11743 -0.265618,0.26355 -5.29e-4,0.14694 0.118684,0.26619 0.265618,0.26562 h 6.35 c 0.146127,-5.8e-4 0.264121,-0.11949 0.263549,-0.26562 -5.29e-4,-0.14532 -0.118229,-0.26298 -0.263549,-0.26355 z m 0,2.11719 c -0.146127,-5.9e-4 -0.265049,0.11742 -0.265618,0.26355 2.65e-4,0.14632 0.11929,0.26463 0.265618,0.26406 h 7.671882 c 0.146328,5.8e-4 0.265332,-0.11774 0.265618,-0.26406 -5.29e-4,-0.14613 -0.119491,-0.26413 -0.265618,-0.26355 z m -1.5875,0.77308 v 5.03483 l -0.547254,-0.14779 c -0.397967,-0.10663 -0.628049,-0.50224 -0.521417,-0.90021 z m 13.54336,5.29785 -2.039152,-3.50003 c -0.202044,-0.347 -0.5603,-0.51964 -0.918808,-0.51832 -0.358505,10e-4 -0.717762,0.17604 -0.917258,0.52452 l -2.01228,3.51658 c -0.398981,0.69697 0.120377,1.58788 0.923459,1.58492 l 4.039288,-0.0142 c 0.814697,-0.003 1.328843,-0.89945 0.924751,-1.59345 z m -11.95586,-3.95582 c -0.146934,-5.8e-4 -0.266192,0.11869 -0.265618,0.26562 2.65e-4,0.14633 0.11929,0.26464 0.265618,0.26407 h 5.5547 c 0.146325,5.8e-4 0.265329,-0.11774 0.265615,-0.26407 5.29e-4,-0.14693 -0.118682,-0.26619 -0.265615,-0.26562 z m 9.45937,0.72089 2.039152,3.50211 c 0.211931,0.36398 -0.03563,0.79529 -0.456819,0.79685 l -4.051432,0.0145 c -0.421188,0.002 -0.672791,-0.4277 -0.463537,-0.79323 l 2.014347,-3.51658 c 0.104627,-0.18277 0.280225,-0.27479 0.457335,-0.27544 0.177109,-6.3e-4 0.354991,0.0898 0.460954,0.27182 z m -0.465082,0.60358 c -0.145319,5.6e-4 -0.262985,0.11823 -0.263551,0.26355 v 1.58802 c 5.29e-4,0.14532 0.118232,0.26298 0.263551,0.26355 0.146124,5.8e-4 0.265047,-0.11743 0.265615,-0.26355 v -1.58802 c -5.29e-4,-0.14613 -0.119491,-0.26412 -0.265615,-0.26355 z m -8.994283,0.79272 c -0.146327,-5.9e-4 -0.265332,0.11773 -0.265617,0.26406 -5.3e-4,0.14694 0.118684,0.26619 0.265617,0.26562 h 3.703133 c 0.146933,5.8e-4 0.266192,-0.11868 0.265618,-0.26562 -2.65e-4,-0.14633 -0.119291,-0.26464 -0.265618,-0.26406 z m 8.994283,1.85156 c -0.146126,5.8e-4 -0.264123,0.11949 -0.263551,0.26562 2.64e-4,0.14552 0.11803,0.2635 0.263551,0.26407 0.146325,5.8e-4 0.26533,-0.11774 0.265615,-0.26407 5.3e-4,-0.14693 -0.118681,-0.26619 -0.265615,-0.26562 z"
         style="color:#000000;font-style:normal;font-variant:normal;font-weight:normal;font-stretch:normal;font-size:medium;line-height:normal;font-family:sans-serif;font-variant-ligatures:normal;font-variant-position:normal;font-variant-caps:normal;font-variant-numeric:normal;font-variant-alternates:normal;font-variant-east-asian:normal;font-feature-settings:normal;font-variation-settings:normal;text-indent:0;text-align:start;text-decoration:none;text-decoration-line:none;text-decoration-style:solid;text-decoration-color:#000000;letter-spacing:normal;word-spacing:normal;text-transform:none;writing-mode:lr-tb;direction:ltr;text-orientation:mixed;dominant-baseline:auto;baseline-shift:baseline;text-anchor:start;white-space:normal;shape-padding:0;shape-margin:0;inline-size:0;clip-rule:nonzero;display:inline;overflow:visible;visibility:visible;isolation:auto;mix-blend-mode:normal;color-interpolation:sRGB;color-interpolation-filters:linearRGB;solid-color:#000000;solid-opacity:1;vector-effect:none;fill:#000000;fill-opacity:1;fill-rule:nonzero;stroke:none;stroke-width:0.406756;stroke-linecap:round;stroke-linejoin:round;stroke-miterlimit:4;stroke-dasharray:none;stroke-dashoffset:0;stroke-opacity:1;color-rendering:auto;image-rendering:auto;shape-rendering:auto;text-rendering:auto;enable-background:accumulate;stop-color:#000000"
         id="path1502-9" />
    </g>
  </g>
</svg>
